<mxfile host="app.diagrams.net" agent="Mozilla/5.0 (Windows NT 10.0; Win64; x64) AppleWebKit/537.36 (KHTML, like Gecko) Chrome/131.0.0.0 Safari/537.36" version="25.0.3">
  <diagram name="Page-1" id="AEgjjvO949h8U1DsjeQs">
    <mxGraphModel dx="1064" dy="1707" grid="1" gridSize="10" guides="1" tooltips="1" connect="1" arrows="1" fold="1" page="1" pageScale="1" pageWidth="827" pageHeight="1169" math="0" shadow="0">
      <root>
        <mxCell id="0" />
        <mxCell id="1" parent="0" />
        <mxCell id="wKVGD-c93seen6UMFnr9-6" style="edgeStyle=orthogonalEdgeStyle;rounded=0;orthogonalLoop=1;jettySize=auto;html=1;exitX=0.5;exitY=1;exitDx=0;exitDy=0;entryX=0.5;entryY=0;entryDx=0;entryDy=0;" edge="1" parent="1" source="wKVGD-c93seen6UMFnr9-2" target="wKVGD-c93seen6UMFnr9-4">
          <mxGeometry relative="1" as="geometry" />
        </mxCell>
        <mxCell id="wKVGD-c93seen6UMFnr9-8" style="edgeStyle=orthogonalEdgeStyle;rounded=0;orthogonalLoop=1;jettySize=auto;html=1;exitX=0.5;exitY=1;exitDx=0;exitDy=0;entryX=0.5;entryY=0;entryDx=0;entryDy=0;" edge="1" parent="1" source="wKVGD-c93seen6UMFnr9-2" target="wKVGD-c93seen6UMFnr9-7">
          <mxGeometry relative="1" as="geometry" />
        </mxCell>
        <mxCell id="wKVGD-c93seen6UMFnr9-2" value="&lt;div style=&quot;color: #383a42;background-color: #f5f5f5;font-family: Consolas, &#39;Courier New&#39;, monospace;font-weight: normal;font-size: 14px;line-height: 19px;white-space: pre;&quot;&gt;&lt;div&gt;&lt;span style=&quot;color: #4078f2;&quot;&gt;drm_gem_object_init&lt;/span&gt;&lt;/div&gt;&lt;/div&gt;" style="text;whiteSpace=wrap;html=1;" vertex="1" parent="1">
          <mxGeometry x="500" y="50" width="160" height="30" as="geometry" />
        </mxCell>
        <mxCell id="wKVGD-c93seen6UMFnr9-4" value="&lt;div style=&quot;color: #383a42;background-color: #f5f5f5;font-family: Consolas, &#39;Courier New&#39;, monospace;font-weight: normal;font-size: 14px;line-height: 19px;white-space: pre;&quot;&gt;&lt;div&gt;&lt;span style=&quot;color: #4078f2;&quot;&gt;drm_gem_private_object_init&lt;/span&gt;&lt;/div&gt;&lt;/div&gt;" style="text;whiteSpace=wrap;html=1;" vertex="1" parent="1">
          <mxGeometry x="360" y="140" width="220" height="30" as="geometry" />
        </mxCell>
        <mxCell id="wKVGD-c93seen6UMFnr9-5" value="&lt;font color=&quot;#999999&quot; style=&quot;font-size: 10px;&quot;&gt;drm_gem_object一些初始化动作&lt;/font&gt;" style="text;html=1;align=center;verticalAlign=middle;whiteSpace=wrap;rounded=0;" vertex="1" parent="1">
          <mxGeometry x="290" y="120" width="180" height="30" as="geometry" />
        </mxCell>
        <mxCell id="wKVGD-c93seen6UMFnr9-7" value="&lt;div style=&quot;color: #383a42;background-color: #f5f5f5;font-family: Consolas, &#39;Courier New&#39;, monospace;font-weight: normal;font-size: 14px;line-height: 19px;white-space: pre;&quot;&gt;&lt;div&gt;&lt;span style=&quot;color: #4078f2;&quot;&gt;shmem_file_setup&lt;/span&gt;&lt;/div&gt;&lt;/div&gt;" style="text;whiteSpace=wrap;html=1;" vertex="1" parent="1">
          <mxGeometry x="630" y="140" width="130" height="30" as="geometry" />
        </mxCell>
        <mxCell id="wKVGD-c93seen6UMFnr9-26" style="edgeStyle=orthogonalEdgeStyle;rounded=0;orthogonalLoop=1;jettySize=auto;html=1;exitX=0.5;exitY=1;exitDx=0;exitDy=0;entryX=0.5;entryY=0;entryDx=0;entryDy=0;" edge="1" parent="1" source="wKVGD-c93seen6UMFnr9-9" target="wKVGD-c93seen6UMFnr9-10">
          <mxGeometry relative="1" as="geometry" />
        </mxCell>
        <mxCell id="wKVGD-c93seen6UMFnr9-51" style="edgeStyle=orthogonalEdgeStyle;rounded=0;orthogonalLoop=1;jettySize=auto;html=1;exitX=0.5;exitY=1;exitDx=0;exitDy=0;entryX=0.5;entryY=0;entryDx=0;entryDy=0;" edge="1" parent="1" source="wKVGD-c93seen6UMFnr9-9" target="wKVGD-c93seen6UMFnr9-49">
          <mxGeometry relative="1" as="geometry" />
        </mxCell>
        <mxCell id="wKVGD-c93seen6UMFnr9-57" style="edgeStyle=orthogonalEdgeStyle;rounded=0;orthogonalLoop=1;jettySize=auto;html=1;exitX=0.5;exitY=1;exitDx=0;exitDy=0;entryX=0.5;entryY=0;entryDx=0;entryDy=0;" edge="1" parent="1" source="wKVGD-c93seen6UMFnr9-9" target="wKVGD-c93seen6UMFnr9-53">
          <mxGeometry relative="1" as="geometry" />
        </mxCell>
        <mxCell id="wKVGD-c93seen6UMFnr9-58" style="edgeStyle=orthogonalEdgeStyle;rounded=0;orthogonalLoop=1;jettySize=auto;html=1;exitX=0.5;exitY=1;exitDx=0;exitDy=0;entryX=0.5;entryY=0;entryDx=0;entryDy=0;" edge="1" parent="1" source="wKVGD-c93seen6UMFnr9-9" target="wKVGD-c93seen6UMFnr9-36">
          <mxGeometry relative="1" as="geometry" />
        </mxCell>
        <mxCell id="wKVGD-c93seen6UMFnr9-9" value="&lt;div style=&quot;color: #383a42;background-color: #f5f5f5;font-family: Consolas, &#39;Courier New&#39;, monospace;font-weight: normal;font-size: 14px;line-height: 19px;white-space: pre;&quot;&gt;&lt;div style=&quot;line-height: 19px;&quot;&gt;.&lt;span style=&quot;color: #e45649;&quot;&gt;dumb_create&lt;/span&gt;&lt;/div&gt;&lt;/div&gt;" style="text;whiteSpace=wrap;html=1;" vertex="1" parent="1">
          <mxGeometry x="530" y="-310" width="100" height="30" as="geometry" />
        </mxCell>
        <mxCell id="wKVGD-c93seen6UMFnr9-44" value="" style="edgeStyle=orthogonalEdgeStyle;rounded=0;orthogonalLoop=1;jettySize=auto;html=1;" edge="1" parent="1" source="wKVGD-c93seen6UMFnr9-10" target="wKVGD-c93seen6UMFnr9-14">
          <mxGeometry relative="1" as="geometry" />
        </mxCell>
        <mxCell id="wKVGD-c93seen6UMFnr9-10" value="&lt;div style=&quot;color: #383a42;background-color: #f5f5f5;font-family: Consolas, &#39;Courier New&#39;, monospace;font-weight: normal;font-size: 14px;line-height: 19px;white-space: pre;&quot;&gt;&lt;div style=&quot;line-height: 19px;&quot;&gt;&lt;span style=&quot;color: #4078f2;&quot;&gt;drm_gem_dma_dumb_create&lt;/span&gt;&lt;/div&gt;&lt;/div&gt;" style="text;whiteSpace=wrap;html=1;" vertex="1" parent="1">
          <mxGeometry x="90" y="-180" width="190" height="30" as="geometry" />
        </mxCell>
        <mxCell id="wKVGD-c93seen6UMFnr9-65" style="edgeStyle=orthogonalEdgeStyle;rounded=0;orthogonalLoop=1;jettySize=auto;html=1;exitX=0.5;exitY=1;exitDx=0;exitDy=0;entryX=0.5;entryY=0;entryDx=0;entryDy=0;" edge="1" parent="1" source="wKVGD-c93seen6UMFnr9-12" target="wKVGD-c93seen6UMFnr9-2">
          <mxGeometry relative="1" as="geometry">
            <Array as="points">
              <mxPoint x="185" y="20" />
              <mxPoint x="580" y="20" />
            </Array>
          </mxGeometry>
        </mxCell>
        <mxCell id="wKVGD-c93seen6UMFnr9-12" value="&lt;div style=&quot;color: #383a42;background-color: #f5f5f5;font-family: Consolas, &#39;Courier New&#39;, monospace;font-weight: normal;font-size: 14px;line-height: 19px;white-space: pre;&quot;&gt;&lt;div&gt;&lt;span style=&quot;color: #4078f2;&quot;&gt;drm_gem_dma_create&lt;/span&gt;&lt;/div&gt;&lt;/div&gt;" style="text;whiteSpace=wrap;html=1;" vertex="1" parent="1">
          <mxGeometry x="110" y="-55" width="150" height="30" as="geometry" />
        </mxCell>
        <mxCell id="wKVGD-c93seen6UMFnr9-15" style="edgeStyle=orthogonalEdgeStyle;rounded=0;orthogonalLoop=1;jettySize=auto;html=1;exitX=0.5;exitY=1;exitDx=0;exitDy=0;entryX=0.5;entryY=0;entryDx=0;entryDy=0;" edge="1" parent="1" source="wKVGD-c93seen6UMFnr9-14" target="wKVGD-c93seen6UMFnr9-12">
          <mxGeometry relative="1" as="geometry" />
        </mxCell>
        <mxCell id="wKVGD-c93seen6UMFnr9-14" value="&lt;div style=&quot;color: #383a42;background-color: #f5f5f5;font-family: Consolas, &#39;Courier New&#39;, monospace;font-weight: normal;font-size: 14px;line-height: 19px;white-space: pre;&quot;&gt;&lt;div&gt;&lt;span style=&quot;color: #4078f2;&quot;&gt;drm_gem_dma_create_with_handle&lt;/span&gt;&lt;/div&gt;&lt;/div&gt;" style="text;whiteSpace=wrap;html=1;" vertex="1" parent="1">
          <mxGeometry x="70" y="-120" width="230" height="30" as="geometry" />
        </mxCell>
        <mxCell id="wKVGD-c93seen6UMFnr9-64" style="edgeStyle=orthogonalEdgeStyle;rounded=0;orthogonalLoop=1;jettySize=auto;html=1;exitX=0.5;exitY=1;exitDx=0;exitDy=0;entryX=0.5;entryY=0;entryDx=0;entryDy=0;" edge="1" parent="1" source="wKVGD-c93seen6UMFnr9-31" target="wKVGD-c93seen6UMFnr9-2">
          <mxGeometry relative="1" as="geometry">
            <Array as="points">
              <mxPoint x="705" y="20" />
              <mxPoint x="580" y="20" />
            </Array>
          </mxGeometry>
        </mxCell>
        <mxCell id="wKVGD-c93seen6UMFnr9-31" value="&lt;div style=&quot;color: #383a42;background-color: #f5f5f5;font-family: Consolas, &#39;Courier New&#39;, monospace;font-weight: normal;font-size: 14px;line-height: 19px;white-space: pre;&quot;&gt;&lt;div&gt;&lt;span style=&quot;color: #4078f2;&quot;&gt;drm_gem_vram_create&lt;/span&gt;&lt;/div&gt;&lt;/div&gt;" style="text;whiteSpace=wrap;html=1;" vertex="1" parent="1">
          <mxGeometry x="630" y="-57.5" width="150" height="30" as="geometry" />
        </mxCell>
        <mxCell id="wKVGD-c93seen6UMFnr9-37" style="edgeStyle=orthogonalEdgeStyle;rounded=0;orthogonalLoop=1;jettySize=auto;html=1;exitX=0.5;exitY=1;exitDx=0;exitDy=0;entryX=0.5;entryY=0;entryDx=0;entryDy=0;" edge="1" parent="1" source="wKVGD-c93seen6UMFnr9-36" target="wKVGD-c93seen6UMFnr9-2">
          <mxGeometry relative="1" as="geometry">
            <Array as="points">
              <mxPoint x="955" y="20" />
              <mxPoint x="580" y="20" />
              <mxPoint x="580" y="50" />
            </Array>
          </mxGeometry>
        </mxCell>
        <mxCell id="wKVGD-c93seen6UMFnr9-36" value="&lt;div style=&quot;color: #383a42;background-color: #f5f5f5;font-family: Consolas, &#39;Courier New&#39;, monospace;font-weight: normal;font-size: 14px;line-height: 19px;white-space: pre;&quot;&gt;&lt;div&gt;&lt;span style=&quot;color: #4078f2;&quot;&gt;driver defined dumb create&lt;/span&gt;&lt;/div&gt;&lt;/div&gt;" style="text;whiteSpace=wrap;html=1;" vertex="1" parent="1">
          <mxGeometry x="850" y="-180" width="210" height="30" as="geometry" />
        </mxCell>
        <mxCell id="wKVGD-c93seen6UMFnr9-61" style="edgeStyle=orthogonalEdgeStyle;rounded=0;orthogonalLoop=1;jettySize=auto;html=1;exitX=0.5;exitY=1;exitDx=0;exitDy=0;entryX=0.5;entryY=0;entryDx=0;entryDy=0;" edge="1" parent="1" source="wKVGD-c93seen6UMFnr9-38" target="wKVGD-c93seen6UMFnr9-2">
          <mxGeometry relative="1" as="geometry">
            <Array as="points">
              <mxPoint x="450" y="20" />
              <mxPoint x="580" y="20" />
            </Array>
          </mxGeometry>
        </mxCell>
        <mxCell id="wKVGD-c93seen6UMFnr9-38" value="&lt;div style=&quot;color: #383a42;background-color: #f5f5f5;font-family: Consolas, &#39;Courier New&#39;, monospace;font-weight: normal;font-size: 14px;line-height: 19px;white-space: pre;&quot;&gt;&lt;div&gt;&lt;span style=&quot;color: #4078f2;&quot;&gt;drm_gem_shmem_create&lt;/span&gt;&lt;/div&gt;&lt;/div&gt;" style="text;whiteSpace=wrap;html=1;" vertex="1" parent="1">
          <mxGeometry x="370" y="-57.5" width="160" height="35" as="geometry" />
        </mxCell>
        <mxCell id="wKVGD-c93seen6UMFnr9-45" value="" style="edgeStyle=orthogonalEdgeStyle;rounded=0;orthogonalLoop=1;jettySize=auto;html=1;" edge="1" parent="1" source="wKVGD-c93seen6UMFnr9-40" target="wKVGD-c93seen6UMFnr9-38">
          <mxGeometry relative="1" as="geometry" />
        </mxCell>
        <mxCell id="wKVGD-c93seen6UMFnr9-40" value="&lt;div style=&quot;color: #383a42;background-color: #f5f5f5;font-family: Consolas, &#39;Courier New&#39;, monospace;font-weight: normal;font-size: 14px;line-height: 19px;white-space: pre;&quot;&gt;&lt;div&gt;&lt;span style=&quot;color: #4078f2;&quot;&gt;drm_gem_shmem_create_with_handle&lt;/span&gt;&lt;/div&gt;&lt;/div&gt;" style="text;whiteSpace=wrap;html=1;" vertex="1" parent="1">
          <mxGeometry x="325" y="-120" width="250" height="30" as="geometry" />
        </mxCell>
        <mxCell id="wKVGD-c93seen6UMFnr9-50" value="" style="edgeStyle=orthogonalEdgeStyle;rounded=0;orthogonalLoop=1;jettySize=auto;html=1;" edge="1" parent="1" source="wKVGD-c93seen6UMFnr9-49" target="wKVGD-c93seen6UMFnr9-40">
          <mxGeometry relative="1" as="geometry" />
        </mxCell>
        <mxCell id="wKVGD-c93seen6UMFnr9-49" value="&lt;div style=&quot;color: #383a42;background-color: #f5f5f5;font-family: Consolas, &#39;Courier New&#39;, monospace;font-weight: normal;font-size: 14px;line-height: 19px;white-space: pre;&quot;&gt;&lt;div&gt;&lt;span style=&quot;color: #4078f2;&quot;&gt;drm_gem_shmem_dumb_create&lt;/span&gt;&lt;/div&gt;&lt;/div&gt;" style="text;whiteSpace=wrap;html=1;" vertex="1" parent="1">
          <mxGeometry x="350" y="-180" width="200" height="30" as="geometry" />
        </mxCell>
        <mxCell id="wKVGD-c93seen6UMFnr9-54" style="edgeStyle=orthogonalEdgeStyle;rounded=0;orthogonalLoop=1;jettySize=auto;html=1;exitX=0.5;exitY=1;exitDx=0;exitDy=0;entryX=0.5;entryY=0;entryDx=0;entryDy=0;" edge="1" parent="1" source="wKVGD-c93seen6UMFnr9-52" target="wKVGD-c93seen6UMFnr9-31">
          <mxGeometry relative="1" as="geometry" />
        </mxCell>
        <mxCell id="wKVGD-c93seen6UMFnr9-52" value="&lt;div style=&quot;color: #383a42;background-color: #f5f5f5;font-family: Consolas, &#39;Courier New&#39;, monospace;font-weight: normal;font-size: 14px;line-height: 19px;white-space: pre;&quot;&gt;&lt;div&gt;&lt;span style=&quot;color: #4078f2;&quot;&gt;drm_gem_vram_fill_create_dumb&lt;/span&gt;&lt;/div&gt;&lt;/div&gt;" style="text;whiteSpace=wrap;html=1;" vertex="1" parent="1">
          <mxGeometry x="590" y="-120" width="230" height="30" as="geometry" />
        </mxCell>
        <mxCell id="wKVGD-c93seen6UMFnr9-56" value="" style="edgeStyle=orthogonalEdgeStyle;rounded=0;orthogonalLoop=1;jettySize=auto;html=1;" edge="1" parent="1" source="wKVGD-c93seen6UMFnr9-53" target="wKVGD-c93seen6UMFnr9-52">
          <mxGeometry relative="1" as="geometry" />
        </mxCell>
        <mxCell id="wKVGD-c93seen6UMFnr9-53" value="&lt;div style=&quot;color: #383a42;background-color: #f5f5f5;font-family: Consolas, &#39;Courier New&#39;, monospace;font-weight: normal;font-size: 14px;line-height: 19px;white-space: pre;&quot;&gt;&lt;div&gt;&lt;span style=&quot;color: #4078f2;&quot;&gt;drm_gem_vram_driver_dumb_create&lt;/span&gt;&lt;/div&gt;&lt;/div&gt;" style="text;whiteSpace=wrap;html=1;" vertex="1" parent="1">
          <mxGeometry x="580" y="-180" width="250" height="30" as="geometry" />
        </mxCell>
        <mxCell id="wKVGD-c93seen6UMFnr9-68" value="" style="edgeStyle=orthogonalEdgeStyle;rounded=0;orthogonalLoop=1;jettySize=auto;html=1;" edge="1" parent="1" source="wKVGD-c93seen6UMFnr9-66" target="wKVGD-c93seen6UMFnr9-67">
          <mxGeometry relative="1" as="geometry" />
        </mxCell>
        <mxCell id="wKVGD-c93seen6UMFnr9-66" value="&lt;div style=&quot;color: #383a42;background-color: #f5f5f5;font-family: Consolas, &#39;Courier New&#39;, monospace;font-weight: normal;font-size: 14px;line-height: 19px;white-space: pre;&quot;&gt;&lt;div&gt;&lt;span style=&quot;color: #4078f2;&quot;&gt;drm_gem_dma_create&lt;/span&gt;&lt;/div&gt;&lt;/div&gt;" style="text;whiteSpace=wrap;html=1;" vertex="1" parent="1">
          <mxGeometry x="150" y="240" width="150" height="30" as="geometry" />
        </mxCell>
        <mxCell id="wKVGD-c93seen6UMFnr9-67" value="&lt;div style=&quot;color: #383a42;background-color: #f5f5f5;font-family: Consolas, &#39;Courier New&#39;, monospace;font-weight: normal;font-size: 14px;line-height: 19px;white-space: pre;&quot;&gt;&lt;div&gt;&lt;span style=&quot;color: #4078f2;&quot;&gt;__drm_gem_dma_create&lt;/span&gt;&lt;/div&gt;&lt;/div&gt;" style="text;whiteSpace=wrap;html=1;" vertex="1" parent="1">
          <mxGeometry x="145" y="290" width="160" height="30" as="geometry" />
        </mxCell>
        <mxCell id="wKVGD-c93seen6UMFnr9-69" value="&lt;div style=&quot;color: #383a42;background-color: #f5f5f5;font-family: Consolas, &#39;Courier New&#39;, monospace;font-weight: normal;font-size: 14px;line-height: 19px;white-space: pre;&quot;&gt;&lt;div&gt;&lt;span style=&quot;color: #4078f2;&quot;&gt;dma_alloc_noncoherent&lt;/span&gt;&lt;/div&gt;&lt;/div&gt;" style="text;whiteSpace=wrap;html=1;" vertex="1" parent="1">
          <mxGeometry x="50" y="420" width="170" height="30" as="geometry" />
        </mxCell>
        <mxCell id="wKVGD-c93seen6UMFnr9-70" value="&lt;div style=&quot;color: #383a42;background-color: #f5f5f5;font-family: Consolas, &#39;Courier New&#39;, monospace;font-weight: normal;font-size: 14px;line-height: 19px;white-space: pre;&quot;&gt;&lt;div&gt;&lt;span style=&quot;color: #4078f2;&quot;&gt;dma_alloc_wc&lt;/span&gt;&lt;/div&gt;&lt;/div&gt;" style="text;whiteSpace=wrap;html=1;" vertex="1" parent="1">
          <mxGeometry x="270" y="420" width="100" height="30" as="geometry" />
        </mxCell>
        <mxCell id="wKVGD-c93seen6UMFnr9-71" value="&lt;div style=&quot;color: #383a42;background-color: #f5f5f5;font-family: Consolas, &#39;Courier New&#39;, monospace;font-weight: normal;font-size: 14px;line-height: 19px;white-space: pre;&quot;&gt;&lt;div&gt;&lt;span style=&quot;color: #4078f2;&quot;&gt;drm_gem_object_init&lt;/span&gt;&lt;/div&gt;&lt;/div&gt;" style="text;whiteSpace=wrap;html=1;" vertex="1" parent="1">
          <mxGeometry x="150" y="380" width="160" height="30" as="geometry" />
        </mxCell>
        <mxCell id="wKVGD-c93seen6UMFnr9-72" value="&lt;div style=&quot;color: #383a42;background-color: #f5f5f5;font-family: Consolas, &#39;Courier New&#39;, monospace;font-weight: normal;font-size: 14px;line-height: 19px;white-space: pre;&quot;&gt;&lt;div&gt;&lt;span style=&quot;color: #e45649;&quot;&gt;gem_obj&lt;/span&gt;&lt;span style=&quot;color: #383a42;&quot;&gt;-&amp;gt;&lt;/span&gt;&lt;span style=&quot;color: #e45649;&quot;&gt;funcs&lt;/span&gt;&lt;span style=&quot;color: #383a42;&quot;&gt; &lt;/span&gt;&lt;span style=&quot;color: #383a42;&quot;&gt;=&lt;/span&gt;&lt;span style=&quot;color: #383a42;&quot;&gt; &lt;/span&gt;&lt;span style=&quot;color: #383a42;&quot;&gt;&amp;amp;&lt;/span&gt;&lt;span style=&quot;color: #e45649;&quot;&gt;drm_gem_dma_default_funcs&lt;/span&gt;&lt;span style=&quot;color: #383a42;&quot;&gt;;&lt;/span&gt;&lt;/div&gt;&lt;/div&gt;" style="text;whiteSpace=wrap;html=1;" vertex="1" parent="1">
          <mxGeometry x="55" y="340" width="350" height="30" as="geometry" />
        </mxCell>
      </root>
    </mxGraphModel>
  </diagram>
</mxfile>
